<?xml version="1.0" encoding="utf-8"?>
<!-- Generator: Adobe Illustrator 19.2.1, SVG Export Plug-In . SVG Version: 6.00 Build 0)  -->
<svg version="1.1" id="Layer_1" xmlns="http://www.w3.org/2000/svg" xmlns:xlink="http://www.w3.org/1999/xlink" x="0px" y="0px"
	 viewBox="0 0 512 512" style="enable-background:new 0 0 512 512;" xml:space="preserve">
<style type="text/css">
	.st0{opacity:0.1;}
	.st1{fill:none;stroke:#000000;stroke-width:3;stroke-miterlimit:10;}
	.st2{fill:none;stroke:#000000;stroke-width:14;stroke-miterlimit:10;}
	.st3{fill:none;stroke:#000000;stroke-width:6;stroke-miterlimit:10;}
	.st4{fill:none;stroke:#000000;stroke-width:13;stroke-miterlimit:10;}
</style>
<g id="_x36_dBQDU.tif" class="st0">
	
		<image style="overflow:visible;" width="1000" height="1000" id="Layer_0" xlink:href="600659FD20C35E6E.png"  transform="matrix(0.778 -0.6283 0.6283 0.778 -1416.4507 414.5932)">
	</image>
</g>
<path class="st1" d="M-1026.7,25.9c-10.8-12.8-34.5-36.2-22.3-40.2s57.5,42.5,68.7,62.2"/>
<path class="st1" d="M-1021.8,1.1c-15.7-13.9-34.1-32.2-19.5-40c7.5-4,66,52.6,85.8,74.5"/>
<path class="st1" d="M-1010.3-18c-8.7-7.4-23.3-20.7-14-27c7.8-5.3,54.3,30.3,105.5,96.2"/>
<path class="st1" d="M-935.6,30.4c-0.3-19.9-3.4-50.4,11.3-46.1c14,4.1,18.5,100.7,58.8,127.4"/>
<path class="st1" d="M-1044-37c0,0,0,3.4,10.1,11.5c6.2,5,13-2.5,13-2.5"/>
<path class="st1" d="M-1024.2-45c0,0,0,4.2,5.8,9s13.8-1,13.8-1"/>
<path class="st1" d="M-1050.2-13.8c0,0,3.1,7.1,8.7,9.8c7.6,3.7,11.9-2.1,11.9-2.1"/>
<path class="st1" d="M-1048.2,12.3c0,0,0.4,1.4,5.6,9.1c5.3,7.8,14.6,3,14.6,3"/>
<path class="st1" d="M-929.9-15.3c0,0-0.9,6.5,0.1,12.8s15.5,6.3,15.5,6.3"/>
<path class="st1" d="M-840.2,121l-13.5-24c-35.7,51.4-51.2,15-77.9,88.8"/>
<path class="st1" d="M-905.8,203.5c5-31,26.1-28,35-47.5s30.5-50,63.9-31.7l5.4,4c-41.3,21.7-48.3,77.2-102.1,116.5
	c-26-19.1-15.6-41.5-28.1-59.1c-12.5-17.5-42.5-29.5-56.2-49.3s-17.8-33.6-27.1-54.8c-9.3-21.1-25.4-40.4-31.1-50.4
	s-10.7-18.2,0.6-19.5s44.1,47.4,44.1,47.4"/>
<path class="st1" d="M-958.8,230.5c-10.5-41-47.5-19.5-70.8-92.8c-12.6-39.6-35.2-66.6-31.7-84.2c5-25.5,46.8,62.5,46.8,62.5"/>
<path class="st1" d="M-1038.1,71.7c0,0-27.7-48.2-27.7-62.2s17.6,2.9,17.6,2.9s-20.3-36.2-13.6-41.6s24.7,15.5,24.7,15.5"/>
<path class="st1" d="M-1024.1,119.5c2.8,2.3,20.5-11.1,20.5-11.1"/>
<path class="st1" d="M-1008.8,139.6c6.2-2.6,13.3-4.6,17.7-8"/>
<path class="st1" d="M-996.8,150.6c2.7-7.6,9.7-5.5,10.7-11.7"/>
<line class="st1" x1="-1046.1" y1="75.3" x2="-1039.8" y2="70"/>
<line class="st1" x1="-1034.1" y1="98.3" x2="-1026.5" y2="92.2"/>
<line class="st1" x1="-1049.9" y1="35.5" x2="-1046.1" y2="31.3"/>
<line class="st1" x1="-1032.6" y1="70" x2="-1024.5" y2="63.7"/>
<path class="st1" d="M-968.9,211c-10.1,17.8-12.8,37.2-4.5,40.5c8.3,3.3,26.3-53.4,38.1-70.2"/>
<path class="st1" d="M-973.4,251.5c12.6,1.9,13.4,11,28.7,12.5c15.8-21,4.2-32,22.5-47.5"/>
<path class="st2" d="M253.3,146c-0.5-27.8-4.8-70,15.8-64.3c20.8,5.8,23.6,140.7,82,177.8"/>
<path class="st3" d="M260.2,82.2c0,0-1.2,9,0.2,17.8s21.6,8.8,21.6,8.8"/>
<path class="st2" d="M386.3,272.4l-18.8-33.5c-49.8,71.8-71.4,21-108.8,123.9"/>
<path class="st2" d="M220.9,425.2c-14.7-57.2-66.3-27.2-98.8-129.5c-17.6-55.3-49.1-92.9-44.2-117.5c7-35.6,65.3,87.2,65.3,87.2"/>
<path class="st2" d="M110.2,203.6c0,0-38.6-67.3-38.6-86.8s24.5,4,24.5,4"/>
<path class="st4" d="M133.1,268.5c3.9,3.3,25.2-13.6,25.2-13.6"/>
<path class="st3" d="M151.2,298.5c8.6-3.7,18.6-6.4,24.7-11.1"/>
<path class="st3" d="M167.9,313.8c3.7-10.6,13.5-7.7,15-16.3"/>
<path class="st3" d="M96.1,209.7c2.4,0.8,13.6-5.1,12.8-8.2"/>
<path class="st3" d="M113.5,241.8c2,1.4,10.9-2.4,13.6-8.2"/>
<path class="st3" d="M96.4,158.6c2,0.8,4.9-1.4,7.8-3"/>
<path class="st3" d="M118.1,199.6c3.2,1.4,8.8-2.2,10.5-6"/>
<path class="st2" d="M149,78.5c-12.1-10.3-32.5-28.8-19.5-37.7c10.8-7.4,75.8,42.2,147.2,134.3"/>
<path class="st2" d="M133,105.1c-21.9-19.4-47.6-44.9-27.2-55.9c10.5-5.6,92.1,73.5,119.7,103.9"/>
<path class="st2" d="M126.1,139.8C111,121.9,77.9,89.2,95,83.7s80.2,59.3,95.9,86.9"/>
<path class="st2" d="M206.7,398c-14.1,24.9-17.9,51.8-6.3,56.5c11.6,4.7,36.7-74.5,53.2-97.9"/>
<path class="st3" d="M98.9,55.9c0,0,0,4.7,14.1,16c8.7,7,18.1-3.5,18.1-3.5"/>
<path class="st3" d="M127.5,43.7c0,0,3,7.7,11,14.4c8,6.6,16.2-3.2,16.2-3.2"/>
<path class="st3" d="M90.3,87.4c0,0,5.6,10.5,11,14.4c5.9,4.3,13-6.2,13-6.2"/>
<path class="st2" d="M294.9,387.6c7-43.3,36.4-39.1,48.8-66.3c12.5-27.2,42.6-69.8,89.1-44.3l7.5,5.6
	c-57.6,30.2-67.3,107.7-142.5,162.6c-36.2-26.7-26.2-55.3-39.2-82.4c-15.5-32.4-56.7-37.7-75.9-65.3s-16.9-35.6-40.4-80
	c-15.1-28.5-35.4-56.3-43.3-70.3c-8-14-14.9-25.4,0.9-27.2s61.6,66.1,61.6,66.1"/>
<path class="st2" d="M200.5,454.5c17.6,2.6,18.7,15.4,40,17.4c22-29.3,5.9-44.7,31.3-66.3"/>
<path class="st3" d="M93.1,125.8c0,0-0.4,6.4,5.6,12.6s16.3-2.1,16.3-2.1"/>
<path class="st2" d="M116.6,89.7C99,75,82.2,58.3,77.4,68.1C71.6,80,89.2,103.4,98,120.1"/>
<path class="st3" d="M240.5,172.1c6.5,0,12.4,7.6,12.8,9.9"/>
<path class="st3" d="M209.5,193.1c5.4,2.3,9.4,6.6,9.8,8.9"/>
<path class="st3" d="M179.5,211.1c5.4,2.3,7.4,5.6,7.8,7.9"/>
<g>
	<path class="st1" d="M-1394.7-457c-0.5-27.8-4.8-70,15.8-64.3c20.8,5.8,23.6,140.7,82,177.8"/>
	<path class="st1" d="M-1386.8-520.8c0,0-1.2,9,0.2,17.8c1.4,8.8,21.6,8.8,21.6,8.8"/>
	<path class="st1" d="M-1261.7-330.6l-18.8-33.5c-49.8,71.8-71.4,21-108.8,123.9"/>
	<path class="st1" d="M-1427.1-177.8c-14.7-57.2-66.3-27.2-98.8-129.5c-17.6-55.3-49.1-92.9-44.2-117.5c7-35.6,65.3,87.2,65.3,87.2"
		/>
	<path class="st1" d="M-1537.8-399.4c0,0-38.6-67.3-38.6-86.8c0-19.5,24.5,4,24.5,4"/>
	<path class="st1" d="M-1514.9-334.5c3.9,3.3,25.2-13.6,25.2-13.6"/>
	<path class="st1" d="M-1496.8-304.5c8.6-3.7,18.6-6.4,24.7-11.1"/>
	<path class="st1" d="M-1480.1-289.2c3.7-10.6,13.5-7.7,15-16.3"/>
	<path class="st1" d="M-1551.9-393.3c2.4,0.8,13.6-5.1,12.8-8.2"/>
	<path class="st1" d="M-1534.5-361.2c2,1.4,10.9-2.4,13.6-8.2"/>
	<path class="st1" d="M-1551.6-444.4c2,0.8,4.9-1.4,7.8-3"/>
	<path class="st1" d="M-1529.9-403.4c3.2,1.4,8.8-2.2,10.5-6"/>
	<path class="st1" d="M-1499-524.5c-12.1-10.3-32.5-28.8-19.5-37.7c10.8-7.4,75.8,42.2,147.2,134.3"/>
	<path class="st1" d="M-1515-497.9c-21.9-19.4-47.6-44.9-27.2-55.9c10.5-5.6,92.1,73.5,119.7,103.9"/>
	<path class="st1" d="M-1521.9-463.2c-15-17.9-48.2-50.6-31.1-56.1c17.1-5.6,80.2,59.3,95.9,86.9"/>
	<path class="st1" d="M-1441.3-205c-14.1,24.9-17.9,51.8-6.3,56.5c11.6,4.7,36.7-74.5,53.2-97.9"/>
	<path class="st1" d="M-1546.1-551.1c0,0,0,4.7,14.1,16c8.7,7,18.1-3.5,18.1-3.5"/>
	<path class="st1" d="M-1518.5-562.3c0,0,3,7.7,11,14.4c8,6.6,16.2-3.2,16.2-3.2"/>
	<path class="st1" d="M-1554.7-518.6c0,0,5.6,10.5,11,14.4c5.9,4.3,13-6.2,13-6.2"/>
	<path class="st1" d="M-1353.1-215.4c7-43.3,36.4-39.1,48.8-66.3c12.5-27.2,42.6-69.8,89.1-44.3l7.5,5.6
		c-57.6,30.2-67.3,107.7-142.5,162.6c-36.2-26.7-26.2-55.3-39.2-82.4c-15.5-32.4-56.7-37.7-75.9-65.3c-19.1-27.6-16.9-35.6-40.4-80
		c-15.1-28.5-35.4-56.3-43.3-70.3s-14.9-25.4,0.9-27.2c15.9-1.8,61.6,66.1,61.6,66.1"/>
	<path class="st1" d="M-1447.5-148.5c17.6,2.6,18.7,15.4,40,17.4c22-29.3,5.9-44.7,31.3-66.3"/>
	<path class="st1" d="M-1551.9-482.2c0,0-0.4,6.4,5.6,12.6s16.3-2.1,16.3-2.1"/>
</g>
<path class="st1" d="M-1531.4-513.3c-17.5-14.7-34.4-31.4-39.2-21.5c-5.8,11.8,11.8,35.3,20.6,51.9"/>
<path class="st1" d="M-1407.5-430.9c6.5,0,12.4,7.6,12.8,9.9"/>
<path class="st1" d="M-1438.5-409.9c5.4,2.3,9.4,6.6,9.8,8.9"/>
<path class="st1" d="M-1468.5-391.9c5.4,2.3,7.4,5.6,7.8,7.9"/>
</svg>
