<?xml version="1.0" encoding="utf-8"?>
<!-- Generator: Adobe Illustrator 19.2.1, SVG Export Plug-In . SVG Version: 6.00 Build 0)  -->
<svg version="1.1" id="Layer_1" xmlns="http://www.w3.org/2000/svg" xmlns:xlink="http://www.w3.org/1999/xlink" x="0px" y="0px"
	 viewBox="0 0 243.8 327.7" style="enable-background:new 0 0 243.8 327.7;" xml:space="preserve">
<style type="text/css">
	.st0{fill:#947FFF;}
	.st1{fill:#7FFFD4;}
	.st2{fill:#4A4080;}
</style>
<g>
	<path class="st0" d="M196.5,277h-169c-5.5,0-10-4.5-10-10V33.6c0-5.5,4.5-10,10-10h169c5.5,0,10,4.5,10,10V267
		C206.5,272.5,202.1,277,196.5,277z"/>
	<path class="st1" d="M216.9,49.7h-10.6v217.7c0,5.5-4.8,9.3-10.3,9.3H37.3v17.1c0,5.5,5,9.9,10.6,9.9h169c5.5,0,9.4-4.4,9.4-9.9
		V60.4C226.3,54.8,222.5,49.7,216.9,49.7z"/>
	<path class="st2" d="M206.3,267.4V49.7H47.9c-5.5,0-10.6,5.2-10.6,10.7v216.3H196C201.5,276.7,206.3,272.9,206.3,267.4z"/>
</g>
</svg>
