<?xml version="1.0" encoding="utf-8"?>
<!-- Generator: Adobe Illustrator 19.2.1, SVG Export Plug-In . SVG Version: 6.00 Build 0)  -->
<svg version="1.1" id="Layer_1" xmlns="http://www.w3.org/2000/svg" xmlns:xlink="http://www.w3.org/1999/xlink" x="0px" y="0px"
	 viewBox="0 0 325.9 379.3" style="enable-background:new 0 0 325.9 379.3;" xml:space="preserve">
<style type="text/css">
	.st0{opacity:0.1;}
	.st1{fill:none;stroke:#000000;stroke-width:3;stroke-miterlimit:10;}
</style>
<g id="_x36_dBQDU.tif" class="st0">
	
		<image style="overflow:visible;" width="1000" height="1000" id="Layer_0" xlink:href="B82DFDF0213DBF46.png"  transform="matrix(0.778 -0.6283 0.6283 0.778 -1659.4209 416.2752)">
	</image>
</g>
<path class="st1" d="M-1218.4-36.3c-10.8-12.8-34.5-36.2-22.3-40.2s57.5,42.5,68.7,62.2"/>
<path class="st1" d="M-1213.5-61.2c-15.7-13.9-34.1-32.2-19.5-40c7.5-4,66,52.6,85.8,74.5"/>
<path class="st1" d="M-1202-80.3c-8.7-7.4-23.3-20.7-14-27c7.8-5.3,54.3,30.2,105.5,96.2"/>
<path class="st1" d="M-1127.3-31.9c-0.3-19.9-3.4-50.4,11.3-46.1c14,4.1,18.5,100.7,58.8,127.4"/>
<path class="st1" d="M-1235.7-99.3c0,0,0,3.4,10.1,11.5c6.2,5,13-2.5,13-2.5"/>
<path class="st1" d="M-1216-107.3c0,0,0,4.2,5.8,9s13.8-1,13.8-1"/>
<path class="st1" d="M-1241.9-76.1c0,0,3.1,7.1,8.7,9.8c7.6,3.7,11.9-2.1,11.9-2.1"/>
<path class="st1" d="M-1239.9-49.9c0,0,0.4,1.4,5.6,9.1c5.3,7.8,14.6,3,14.6,3"/>
<path class="st1" d="M-1121.6-77.6c0,0-0.9,6.5,0.1,12.8s15.5,6.3,15.5,6.3"/>
<path class="st1" d="M-1032,58.7l-13.5-24c-35.7,51.4-51.2,15-77.9,88.8"/>
<path class="st1" d="M-1097.5,141.2c5-31,26.1-28,35-47.5c8.9-19.5,30.5-50,63.9-31.7l5.4,4c-41.3,21.7-48.3,77.2-102.1,116.5
	c-26-19.1-15.6-41.5-28.1-59.1s-42.5-29.5-56.2-49.3s-17.8-33.6-27.1-54.8s-25.4-40.4-31.1-50.4s-10.7-18.2,0.6-19.5
	c11.4-1.3,44.1,47.4,44.1,47.4"/>
<path class="st1" d="M-1150.5,168.2c-10.5-41-47.5-19.5-70.8-92.8c-12.6-39.6-35.2-66.6-31.7-84.2c5-25.5,46.8,62.5,46.8,62.5"/>
<path class="st1" d="M-1229.8,9.4c0,0-27.7-48.2-27.7-62.2s17.6,2.9,17.6,2.9s-20.3-36.2-13.6-41.6c6.8-5.4,24.7,15.5,24.7,15.5"/>
<path class="st1" d="M-1215.8,57.2c2.8,2.3,20.5-11.1,20.5-11.1"/>
<path class="st1" d="M-1200.5,77.4c6.2-2.6,13.3-4.6,17.7-8"/>
<path class="st1" d="M-1188.5,88.4c2.7-7.6,9.7-5.5,10.7-11.7"/>
<line class="st1" x1="-1237.8" y1="13" x2="-1231.5" y2="7.7"/>
<line class="st1" x1="-1225.8" y1="36" x2="-1218.2" y2="29.9"/>
<line class="st1" x1="-1241.6" y1="-26.8" x2="-1237.8" y2="-31"/>
<line class="st1" x1="-1224.3" y1="7.7" x2="-1216.2" y2="1.5"/>
<path class="st1" d="M-1160.7,148.7c-10.1,17.8-12.8,37.2-4.5,40.5c8.3,3.3,26.3-53.4,38.1-70.2"/>
<path class="st1" d="M-1165.1,189.2c12.6,1.9,13.4,11,28.7,12.5c15.8-21,4.2-32,22.5-47.5"/>
<g>
	<path class="st1" d="M-1586.4-519.3c-0.5-27.8-4.8-70,15.8-64.3c20.8,5.8,23.6,140.7,82,177.8"/>
	<path class="st1" d="M-1578.5-583.1c0,0-1.2,9,0.2,17.8c1.4,8.8,21.6,8.8,21.6,8.8"/>
	<path class="st1" d="M-1453.4-392.9l-18.8-33.5c-49.8,71.8-71.4,21-108.8,123.9"/>
	<path class="st1" d="M-1618.8-240c-14.7-57.2-66.3-27.2-98.8-129.5c-17.6-55.3-49.1-92.9-44.2-117.5c7-35.6,65.3,87.2,65.3,87.2"/>
	<path class="st1" d="M-1729.5-461.7c0,0-38.6-67.3-38.6-86.8s24.5,4,24.5,4"/>
	<path class="st1" d="M-1706.6-396.8c3.9,3.3,25.2-13.6,25.2-13.6"/>
	<path class="st1" d="M-1688.6-366.8c8.6-3.7,18.6-6.4,24.7-11.1"/>
	<path class="st1" d="M-1671.9-351.4c3.7-10.6,13.5-7.7,15-16.3"/>
	<path class="st1" d="M-1743.6-455.6c2.4,0.8,13.6-5.1,12.8-8.2"/>
	<path class="st1" d="M-1726.2-423.4c2,1.4,10.9-2.4,13.6-8.2"/>
	<path class="st1" d="M-1743.4-506.6c2,0.8,4.9-1.4,7.8-3"/>
	<path class="st1" d="M-1721.6-465.6c3.2,1.4,8.8-2.2,10.5-6"/>
	<path class="st1" d="M-1690.7-586.8c-12.1-10.3-32.5-28.8-19.5-37.7c10.8-7.4,75.8,42.2,147.2,134.3"/>
	<path class="st1" d="M-1706.7-560.2c-21.9-19.4-47.6-44.9-27.2-55.9c10.5-5.6,92.1,73.5,119.7,103.9"/>
	<path class="st1" d="M-1713.7-525.5c-15-17.9-48.2-50.6-31.1-56.1c17.1-5.6,80.2,59.3,95.9,86.9"/>
	<path class="st1" d="M-1633-267.2c-14.1,24.9-17.9,51.8-6.3,56.5c11.6,4.7,36.7-74.5,53.2-97.9"/>
	<path class="st1" d="M-1737.8-613.4c0,0,0,4.7,14.1,16c8.7,7,18.1-3.5,18.1-3.5"/>
	<path class="st1" d="M-1710.2-624.5c0,0,3,7.7,11,14.4c8,6.6,16.2-3.2,16.2-3.2"/>
	<path class="st1" d="M-1746.4-580.9c0,0,5.6,10.5,11,14.4c5.9,4.3,13-6.2,13-6.2"/>
	<path class="st1" d="M-1544.8-277.7c7-43.3,36.4-39.1,48.8-66.3c12.5-27.2,42.6-69.8,89.1-44.3l7.5,5.6
		c-57.6,30.2-67.3,107.7-142.5,162.6c-36.2-26.7-26.2-55.3-39.2-82.4c-15.5-32.4-56.7-37.7-75.9-65.3s-16.9-35.6-40.4-80
		c-15.1-28.5-35.4-56.3-43.3-70.3c-8-14-14.9-25.4,0.9-27.2c15.9-1.8,61.6,66.1,61.6,66.1"/>
	<path class="st1" d="M-1639.3-210.7c17.6,2.6,18.7,15.4,40,17.4c22-29.3,5.9-44.7,31.3-66.3"/>
	<path class="st1" d="M-1743.6-544.5c0,0-0.4,6.4,5.6,12.6c6,6.2,16.3-2.1,16.3-2.1"/>
</g>
<path class="st1" d="M-1723.1-575.6c-17.5-14.7-34.4-31.4-39.2-21.5c-5.8,11.8,11.8,35.3,20.6,51.9"/>
<path class="st1" d="M-1599.3-493.2c6.5,0,12.4,7.6,12.8,9.9"/>
<path class="st1" d="M-1630.3-472.2c5.4,2.3,9.4,6.6,9.8,8.9"/>
<path class="st1" d="M-1660.3-454.2c5.4,2.3,7.4,5.6,7.8,7.9"/>
<g>
	<path class="st1" d="M40.7,44.8C25.4,32,10.6,17.5,6.4,26.1c-5,10.3,10.3,30.7,18,45.2"/>
	<g>
		<g>
			<path class="st1" d="M159.9,93.7c-0.5-24.2-4.3-61,13.7-56.1c18.2,5,20.8,122.5,71.8,154.8"/>
			<path class="st1" d="M166.7,38.1c0,0-1,7.9,0.2,15.5s18.8,7.6,18.8,7.6"/>
			<path class="st1" d="M276,203.6l-16.5-29.2c-43.3,62.6-62.2,18.4-94.6,108.2"/>
			<path class="st1" d="M132.1,337c-12.9-49.8-57.8-23.6-86.3-112.7C30.4,176.2,2.9,143.5,7.1,122c6-31,57,75.9,57,75.9"/>
			<path class="st1" d="M35.3,144.1c0,0-33.8-58.6-33.8-75.6S22.9,72,22.9,72"/>
			<path class="st1" d="M55.3,200.6c3.4,2.8,21.9-11.9,21.9-11.9"/>
			<path class="st1" d="M71.1,226.7c7.5-3.2,16.2-5.6,21.5-9.7"/>
			<path class="st1" d="M85.7,240.1c3.2-9.2,11.8-6.7,13-14.3"/>
			<path class="st1" d="M23,149.4c2.1,0.7,11.9-4.5,11.1-7.2"/>
			<path class="st1" d="M38.2,177.4c1.7,1.2,9.5-2.1,11.8-7.2"/>
			<path class="st1" d="M23.1,104.9c1.7,0.7,4.2-1.2,6.8-2.7"/>
			<path class="st1" d="M42.2,140.6c2.7,1.2,7.7-1.9,9.2-5.3"/>
			<path class="st1" d="M68.9,35C58.3,26,40.5,9.9,51.9,2.1c9.4-6.5,66.1,36.7,128.5,116.8"/>
			<path class="st1" d="M55,58.2C35.9,41.3,13.4,19.1,31.2,9.5c9.1-4.9,80.4,63.9,104.5,90.4"/>
			<path class="st1" d="M49,88.5c-13.1-15.6-42.1-44-27.2-48.9s70,51.6,83.7,75.6"/>
			<path class="st1" d="M119.7,313.4c-12.3,21.7-15.5,45.2-5.4,49.2s31.8-65,46.2-85.4"/>
			<path class="st1" d="M27.8,11.9c0,0,0,4.1,12.3,13.9c7.6,6.1,15.8-3,15.8-3"/>
			<path class="st1" d="M51.9,2.1c0,0,2.6,6.7,9.7,12.5s14.1-2.8,14.1-2.8"/>
			<path class="st1" d="M20.4,40.2c0,0,4.9,9.2,9.6,12.6c5.2,3.8,11.3-5.4,11.3-5.4"/>
			<path class="st1" d="M196.5,304.1c6-37.7,31.6-34.1,42.5-57.8c10.8-23.7,37-60.9,77.6-38.7l6.6,4.9
				c-50.1,26.4-58.5,94-123.9,141.9c-31.6-23.2-22.9-48.2-34.3-71.8c-13.5-28.2-49.5-32.8-66.2-56.8s-14.8-31-35.4-69.6
				c-13.2-24.8-30.9-49-37.9-61.2s-13.1-22.1,0.7-23.7S80,128.8,80,128.8"/>
			<path class="st1" d="M114.3,362.6c15.4,2.3,16.3,13.3,34.9,15.1c19.1-25.6,5.1-38.9,27.2-57.8"/>
			<path class="st1" d="M22.9,72c0,0-0.3,5.6,4.9,11C33,88.4,42,81.1,42,81.1"/>
		</g>
		<path class="st1" d="M148.7,116.4c5.7,0,10.8,6.6,11.2,8.6"/>
		<path class="st1" d="M121.8,134.8c4.8,2,8.2,5.7,8.5,7.7"/>
		<path class="st1" d="M95.6,150.5c4.8,2,6.4,4.9,6.8,6.9"/>
		<path class="st1" d="M188.1,84.3c-3.1,1.9-7.2,2.6-8.3,2"/>
		<path class="st1" d="M181.5,81.1c1.7-1,3.9-1.4,4.5-1.1"/>
	</g>
</g>
<g>
	<path class="st1" d="M-2071.9-123c-4.6-14.3-8.2-29.4-14.2-25.6c-7.3,4.6-5.8,23.7-6.7,36"/>
	<g>
		<g>
			<path class="st1" d="M-2015.8-44.2c9.4-15.6,21.8-40.5,31.2-30.1c9.5,10.5-35.9,86.2-16.5,127.1"/>
			<path class="st1" d="M-1989.1-76.7c0,0-3.8,4.6-6.1,9.9c-2.3,5.4,8.9,12.4,8.9,12.4"/>
			<path class="st1" d="M-1986.1,72.3l1.2-25.1c-52.6,22.4-46.9-13.2-103.5,30.8"/>
			<path class="st1" d="M-2131,99.3c11.8-36.8-27.3-38.2-9.7-106.2c9.5-36.8,5.2-68.6,16.4-80.6c16.3-17.3,5.8,71.1,5.8,71.1"/>
			<path class="st1" d="M-2115.1-62.1c0,0,2-50.8,8.8-61.6c6.8-10.8,12.2,10.8,12.2,10.8"/>
			<path class="st1" d="M-2125-18.1c1,3.2,18.7,1.2,18.7,1.2"/>
			<path class="st1" d="M-2125.5,4.8c6.1,1,12.5,3,17.5,2.4"/>
			<path class="st1" d="M-2121.6,19.1c5.8-4.6,10.2,0.5,14-3.8"/>
			<path class="st1" d="M-2125.1-63.6c1,1.3,9.3,1.9,10-0.1"/>
			<path class="st1" d="M-2126.6-39.7c0.6,1.5,6.9,2.5,10.4,0.2"/>
			<path class="st1" d="M-2107.1-91.8c0.8,1.1,3.2,0.9,5.4,1"/>
			<path class="st1" d="M-2109.4-61.5c1.3,1.8,5.7,1.9,7.9,0.3"/>
			<path class="st1" d="M-2050-117.9c-3.1-9.9-8-27.3,2.3-27.7c8.6-0.3,27.3,49.8,34.8,125.8"/>
			<path class="st1" d="M-2068.2-108.8c-5.4-18.4-10.7-41.5,4.4-40.5c7.8,0.5,25.4,72.8,30.1,99.3"/>
			<path class="st1" d="M-2084.1-91.9c-2.1-15.2-9.1-44.8,2.3-41.9c11.4,2.9,23.8,60.8,22.9,81.6"/>
			<path class="st1" d="M-2129.4,79.3c-16.5,8.9-28,22.5-23.2,29.1c4.8,6.6,46.3-28.5,63.6-35.7"/>
			<path class="st1" d="M-2066.8-149c0,0-1.6,2.6,2.3,13.8c2.4,6.9,11.2,4.4,11.2,4.4"/>
			<path class="st1" d="M-2047.7-145.6c0,0-1,5.3,1.1,11.8c2.1,6.5,10.1,3.9,10.1,3.9"/>
			<path class="st1" d="M-2082.9-134.1c0,0-0.5,7.8,1.1,11.8c1.8,4.5,9.4,1.1,9.4,1.1"/>
			<path class="st1" d="M-2076.8,104.2c18.9-21.6,33.8-9,50.2-19.7c16.4-10.7,47.9-23.8,64.8,6.5l2.2,5.7
				c-42.4-3.3-74.9,36.2-135.7,40.5c-10.8-27.4,4.7-39.8,7-59.3c2.7-23.3-18.3-40.7-19.3-62.7s3-25.6,5.4-58.4
				c1.6-21.1,0-43.5,0.5-54.1s0.6-19.3,10-14.7s11.1,58.1,11.1,58.1"/>
			<path class="st1" d="M-2152.5,108.5c8.8,7.6,5,15,16.1,23.6c22.4-8.6,18.8-22.7,40.5-25.8"/>
			<path class="st1" d="M-2094.1-112.9c0,0-2.4,3.4-1.3,9c1.1,5.6,9.8,4.5,9.8,4.5"/>
		</g>
		<path class="st1" d="M-2031.9-34.2c3.6,2.3,4.2,8.5,3.6,9.9"/>
		<path class="st1" d="M-2056.4-33.3c2.2,3.2,2.9,6.9,2.3,8.3"/>
		<path class="st1" d="M-2079.3-33.8c2.2,3.2,2.1,5.7,1.6,7.1"/>
		<path class="st1" d="M-1994-38.8c-2.7,0-5.6-1.2-6.1-2"/>
		<path class="st1" d="M-1997-43.5c1.5,0,3,0.7,3.3,1.1"/>
	</g>
</g>
<text transform="matrix(1 0 0 1 -2205.8035 -106.0946)" style="font-family:'Roboto-Thin'; font-size:118.9014px;">6</text>
</svg>
